<svg xmlns="http://www.w3.org/2000/svg" viewBox="0 0 20.01 86"><title>Asset 2</title><g id="Layer_2" data-name="Layer 2"><g id="Layer_1-2" data-name="Layer 1"><polygon style="fill:#393e41;" points="0.31 27.47 19.69 27.47 18.16 20.01 1.84 20.01 0.31 27.47"/><polygon style="fill:#393e41;" points="3.2 18.51 16.8 18.51 15.4 13.8 4.6 13.8 3.2 18.51"/><polygon style="fill:#393e41;" points="9.59 0 7.81 12.3 12.19 12.3 10.41 0 9.59 0"/><path style="fill:#393e41;" d="M0,86H20V29H0Zm15.69-2.83H12.06a1,1,0,1,1,0-2h3.63a1,1,0,0,1,0,2Zm0-5.5H12.06a1,1,0,1,1,0-2h3.63a1,1,0,0,1,0,2Zm0-5.5H12.06a1,1,0,1,1,0-2h3.63a1,1,0,0,1,0,2Zm0-5.5H12.06a1,1,0,1,1,0-2h3.63a1,1,0,0,1,0,2Zm0-5.5H12.06a1,1,0,1,1,0-2h3.63a1,1,0,0,1,0,2Zm0-5.5H12.06a1,1,0,1,1,0-2h3.63a1,1,0,0,1,0,2ZM10,32.75a6.5,6.5,0,1,1-6.5,6.5A6.5,6.5,0,0,1,10,32.75ZM4.32,53.67H7.94a1,1,0,1,1,0,2H4.32a1,1,0,0,1,0-2Zm0,5.5H7.94a1,1,0,1,1,0,2H4.32a1,1,0,0,1,0-2Zm0,5.5H7.94a1,1,0,1,1,0,2H4.32a1,1,0,0,1,0-2Zm0,5.5H7.94a1,1,0,1,1,0,2H4.32a1,1,0,0,1,0-2Zm0,5.5H7.94a1,1,0,1,1,0,2H4.32a1,1,0,0,1,0-2Zm0,5.5H7.94a1,1,0,1,1,0,2H4.32a1,1,0,0,1,0-2Z"/><path style="fill:#393e41;" d="M10,40h3.06a1,1,0,1,0,0-2H11V35.63a1,1,0,1,0-2,0V39A1,1,0,0,0,10,40Z"/></g></g></svg>